<svg xmlns="http://www.w3.org/2000/svg" width="574.908" height="168.618" viewBox="0 0 574.908 168.618">
  <g>
    <g>
      <path d="M204.271,79.69,215.8,109.431h-3.048l-3.342-8.938H196.334l-3.549,8.938h-2.924L201.974,79.69Zm4.219,18.464-5.514-14.663L197.3,98.154Z" fill="#e2d243"/>
      <path d="M230.544,100.493a8.413,8.413,0,0,0,.709,3.216,6.14,6.14,0,0,0,1.713,2.212,6.761,6.761,0,0,0,2.59,1.274,13.06,13.06,0,0,0,3.342.4,11.457,11.457,0,0,0,3.236-.438,8.576,8.576,0,0,0,2.59-1.235,5.651,5.651,0,0,0,1.712-1.9,5.076,5.076,0,0,0,.606-2.484,4.621,4.621,0,0,0-.772-2.778,6.372,6.372,0,0,0-2.006-1.776,11.973,11.973,0,0,0-2.84-1.147q-1.608-.439-3.259-.877t-3.257-1.005a10.423,10.423,0,0,1-2.839-1.483,7.009,7.009,0,0,1-2.007-2.36,7.587,7.587,0,0,1-.771-3.613,6.339,6.339,0,0,1,.9-3.464,7.768,7.768,0,0,1,2.277-2.342,9.709,9.709,0,0,1,3.048-1.334,13.337,13.337,0,0,1,3.259-.418,13.78,13.78,0,0,1,6.557,1.462,8.777,8.777,0,0,1,4.051,5.18L246.75,87a7.125,7.125,0,0,0-3.049-4.2,9.422,9.422,0,0,0-4.929-1.274,9.089,9.089,0,0,0-2.319.312,7.3,7.3,0,0,0-2.15.941,5.229,5.229,0,0,0-1.567,1.564,3.883,3.883,0,0,0-.6,2.151,4.353,4.353,0,0,0,.773,2.7,6.113,6.113,0,0,0,2,1.691,12.569,12.569,0,0,0,2.84,1.086q1.608.414,3.259.835t3.257.959a10.484,10.484,0,0,1,2.841,1.444,6.876,6.876,0,0,1,2.005,2.318,7.353,7.353,0,0,1,.773,3.549A8.2,8.2,0,0,1,247,107.842q-2.883,2.342-8.1,2.339a18.068,18.068,0,0,1-4.115-.435,9.827,9.827,0,0,1-3.3-1.423,8.26,8.26,0,0,1-2.4-2.547,11.18,11.18,0,0,1-1.378-3.822Z" fill="#e2d243"/>
      <path d="M266.506,100.493a8.413,8.413,0,0,0,.71,3.216,6.129,6.129,0,0,0,1.713,2.212,6.754,6.754,0,0,0,2.59,1.274,13.06,13.06,0,0,0,3.342.4,11.457,11.457,0,0,0,3.236-.438,8.576,8.576,0,0,0,2.59-1.235,5.661,5.661,0,0,0,1.712-1.9,5.075,5.075,0,0,0,.605-2.484,4.621,4.621,0,0,0-.771-2.778,6.383,6.383,0,0,0-2.006-1.776,11.973,11.973,0,0,0-2.84-1.147q-1.608-.439-3.259-.877t-3.257-1.005a10.409,10.409,0,0,1-2.839-1.483,7.009,7.009,0,0,1-2.007-2.36,7.575,7.575,0,0,1-.771-3.613,6.339,6.339,0,0,1,.9-3.464,7.768,7.768,0,0,1,2.277-2.342,9.7,9.7,0,0,1,3.048-1.334,13.337,13.337,0,0,1,3.259-.418,13.782,13.782,0,0,1,6.557,1.462,8.777,8.777,0,0,1,4.051,5.18L282.712,87a7.119,7.119,0,0,0-3.048-4.2,9.425,9.425,0,0,0-4.929-1.274,9.089,9.089,0,0,0-2.319.312,7.3,7.3,0,0,0-2.15.941,5.229,5.229,0,0,0-1.567,1.564,3.884,3.884,0,0,0-.606,2.151,4.354,4.354,0,0,0,.774,2.7,6.093,6.093,0,0,0,2,1.691,12.569,12.569,0,0,0,2.84,1.086q1.608.414,3.259.835t3.257.959a10.5,10.5,0,0,1,2.841,1.444,6.876,6.876,0,0,1,2,2.318,7.364,7.364,0,0,1,.773,3.549,8.2,8.2,0,0,1-2.882,6.765q-2.883,2.342-8.1,2.339a18.084,18.084,0,0,1-4.116-.435,9.83,9.83,0,0,1-3.3-1.423,8.26,8.26,0,0,1-2.4-2.547,11.18,11.18,0,0,1-1.378-3.822Z" fill="#e2d243"/>
      <path d="M322.812,99.782a12.092,12.092,0,0,1-.772,4.49,8.7,8.7,0,0,1-2.215,3.259,9.467,9.467,0,0,1-3.466,1.985,15.49,15.49,0,0,1-8.98,0,9.467,9.467,0,0,1-3.468-1.985,8.7,8.7,0,0,1-2.213-3.259,12.092,12.092,0,0,1-.773-4.49V79.69h2.841V99.7a9.231,9.231,0,0,0,.648,3.673,6.366,6.366,0,0,0,4.3,3.8,12.132,12.132,0,0,0,6.307,0,6.374,6.374,0,0,0,4.3-3.8,9.285,9.285,0,0,0,.647-3.673V79.69h2.84Z" fill="#e2d243"/>
      <path d="M338.935,79.69H352.09a9.915,9.915,0,0,1,3.948.712,7.692,7.692,0,0,1,2.694,1.857,7.373,7.373,0,0,1,1.546,2.654,9.543,9.543,0,0,1,.5,3.047,7.279,7.279,0,0,1-2.339,5.849,10.734,10.734,0,0,1-6.39,2.3l9.523,13.326H357.98l-9.439-13.2h-6.767v13.2h-2.839Zm2.839,13.952h8.814a10.782,10.782,0,0,0,3.675-.523,6.092,6.092,0,0,0,2.235-1.334,4.425,4.425,0,0,0,1.128-1.819,6.7,6.7,0,0,0,.313-2.006,5.587,5.587,0,0,0-1.546-4.133q-1.543-1.545-5.346-1.546h-9.273Z" fill="#e2d243"/>
      <path d="M374.9,79.69h19.464v2.591H377.737V92.807h15V95.4h-15v11.444h17.5v2.59H374.9Z" fill="#e2d243"/>
      <path d="M432.79,79.69h11.694a11.716,11.716,0,0,1,4.032.648,9.956,9.956,0,0,1,3.07,1.755,10.718,10.718,0,0,1,2.192,2.59,15.12,15.12,0,0,1,1.442,3.132,18.821,18.821,0,0,1,.773,3.382,25.839,25.839,0,0,1,.228,3.365,22.212,22.212,0,0,1-.605,4.968,14.706,14.706,0,0,1-2.047,4.827,11.77,11.77,0,0,1-3.843,3.634,11.576,11.576,0,0,1-6.034,1.44h-10.9Zm2.839,27.151h7.895a9.243,9.243,0,0,0,4.658-1.087,8.827,8.827,0,0,0,3.048-2.82,11.754,11.754,0,0,0,1.651-3.924,19.9,19.9,0,0,0,.5-4.448,20.725,20.725,0,0,0-.46-4.242,12.425,12.425,0,0,0-1.545-3.967,9.122,9.122,0,0,0-2.861-2.922,7.94,7.94,0,0,0-4.407-1.15h-8.48Z" fill="#e2d243"/>
      <path d="M471.217,79.69H490.68v2.591H474.057V92.807h15V95.4h-15v11.444h17.5v2.59H471.217Z" fill="#e2d243"/>
      <path d="M506.428,79.69h19.38v2.591h-16.54v9.943h14.787V94.81H509.268v14.621h-2.84Z" fill="#e2d243"/>
      <path d="M540.6,79.69h2.84v29.741H540.6Z" fill="#e2d243"/>
    </g>
    <path d="M166.086,166.672v1.95H97.566v-1.95q6.81,0,9.97-9.96a27.847,27.847,0,0,0,1.33-8.62,41.7,41.7,0,0,0-2.79-14.22l-7.05-17.25-.85-1.94h.12l-30.25-73.99-.85-2.55L82.746,0H84.7l56.12,137.39a78.8,78.8,0,0,0,12.64,20.9Q160.611,166.677,166.086,166.672Z" fill="#e2d243"/>
    <path d="M81.386,124.132c-22.48,0-40.7,19.83-40.7,44.3,0-24.47-18.21-44.3-40.69-44.3,22.48,0,40.69-19.84,40.69-44.31C40.686,104.292,58.906,124.132,81.386,124.132Z" fill="#e2d243"/>
    <g>
      <path d="M562.327,67.476h-2.614V75.1h-1.59V67.476h-2.6V66.232h6.808Z" fill="#e2d243"/>
      <path d="M574.908,66.232V75.1h-1.59l.046-6.97h-.023L570.7,75.1h-1.256l-2.488-6.97h-.023l.045,6.97h-1.508V66.232h2.177l2.465,6.993h.034l2.581-6.993Z" fill="#e2d243"/>
    </g>
    <g>
      <path d="M189.861,127.153h7.429v.9h-3.223v9.4h-.983v-9.4h-3.223Z" fill="#e2d243"/>
      <path d="M202.22,127.153h.982v4.539h6.158v-4.539h.983v10.292h-.983v-4.857H203.2v4.857h-.982Z" fill="#e2d243"/>
      <path d="M216.053,127.153h6.737v.9h-5.754v3.643h5.19v.9h-5.19v3.961h6.057v.9h-7.04Z" fill="#e2d243"/>
      <path d="M234.931,127.153h1.055l3.224,8.731,3.281-8.731H243.5l-3.859,10.292h-.867Z" fill="#e2d243"/>
      <path d="M248.057,127.153h6.736v.9H249.04v3.643h5.189v.9H249.04v3.961H255.1v.9h-7.04Z" fill="#e2d243"/>
      <path d="M260.242,127.153H264.8a3.461,3.461,0,0,1,1.367.245,2.679,2.679,0,0,1,.932.644,2.534,2.534,0,0,1,.535.918,3.331,3.331,0,0,1,.173,1.055,2.514,2.514,0,0,1-.809,2.023,3.713,3.713,0,0,1-2.212.8l3.3,4.611h-1.243l-3.267-4.568h-2.342v4.568h-.983Zm.983,4.828h3.05a3.761,3.761,0,0,0,1.272-.18,2.123,2.123,0,0,0,.774-.463,1.528,1.528,0,0,0,.39-.629,2.326,2.326,0,0,0,.109-.694,1.938,1.938,0,0,0-.535-1.431,2.578,2.578,0,0,0-1.851-.535h-3.209Z" fill="#e2d243"/>
      <path d="M272.862,127.153h.983v10.292h-.983Z" fill="#e2d243"/>
      <path d="M279.511,127.153h6.707v.9h-5.724v3.44h5.117v.9h-5.117v5.059h-.983Z" fill="#e2d243"/>
      <path d="M291.335,127.153h.984v10.292h-.984Z" fill="#e2d243"/>
      <path d="M305.111,130.044a4.88,4.88,0,0,0-.39-.954,2.482,2.482,0,0,0-.578-.708,2.413,2.413,0,0,0-.846-.442,4.137,4.137,0,0,0-1.193-.151,3.3,3.3,0,0,0-1.51.325,2.93,2.93,0,0,0-1.07.918,4.234,4.234,0,0,0-.643,1.424,7.281,7.281,0,0,0-.217,1.843,7.1,7.1,0,0,0,.267,2.088,3.666,3.666,0,0,0,.752,1.4,2.891,2.891,0,0,0,1.142.781,4.1,4.1,0,0,0,1.438.245,2.751,2.751,0,0,0,1.88-.586,3.645,3.645,0,0,0,1.011-1.6l.94.506a3.8,3.8,0,0,1-1.569,1.981,4.791,4.791,0,0,1-2.45.593,4.919,4.919,0,0,1-1.713-.3,3.57,3.57,0,0,1-1.4-.947,4.537,4.537,0,0,1-.94-1.676,7.994,7.994,0,0,1-.339-2.487,7.523,7.523,0,0,1,.361-2.486,4.766,4.766,0,0,1,.961-1.677,3.6,3.6,0,0,1,1.381-.947,4.534,4.534,0,0,1,1.619-.3,6.159,6.159,0,0,1,1.388.144,3.582,3.582,0,0,1,1.12.463,3.49,3.49,0,0,1,.889.824,5.438,5.438,0,0,1,.694,1.229Z" fill="#e2d243"/>
      <path d="M314.94,127.153l3.99,10.292h-1.055l-1.157-3.094h-4.524l-1.229,3.094h-1.011l4.192-10.292Zm1.461,6.389-1.909-5.074-1.966,5.074Z" fill="#e2d243"/>
      <path d="M321.561,127.153h7.43v.9h-3.223v9.4h-.983v-9.4h-3.224Z" fill="#e2d243"/>
      <path d="M333.877,127.153h.983v10.292h-.983Z" fill="#e2d243"/>
      <path d="M340.223,132.3a7.436,7.436,0,0,1,.268-2,5.324,5.324,0,0,1,.816-1.727,4.2,4.2,0,0,1,1.388-1.222,4.476,4.476,0,0,1,3.961,0,4.211,4.211,0,0,1,1.388,1.222,5.324,5.324,0,0,1,.816,1.727,7.559,7.559,0,0,1,0,3.99,5.344,5.344,0,0,1-.816,1.727,4.2,4.2,0,0,1-1.388,1.222,4.467,4.467,0,0,1-3.961,0,4.189,4.189,0,0,1-1.388-1.222,5.344,5.344,0,0,1-.816-1.727A7.431,7.431,0,0,1,340.223,132.3Zm.983,0a6.8,6.8,0,0,0,.195,1.612,4.58,4.58,0,0,0,.622,1.446,3.462,3.462,0,0,0,1.084,1.047,3.24,3.24,0,0,0,3.137,0,3.473,3.473,0,0,0,1.084-1.047,4.58,4.58,0,0,0,.622-1.446,6.727,6.727,0,0,0,0-3.216,4.54,4.54,0,0,0-.622-1.453,3.454,3.454,0,0,0-1.084-1.048,3.24,3.24,0,0,0-3.137,0,3.443,3.443,0,0,0-1.084,1.048,4.54,4.54,0,0,0-.622,1.453A6.83,6.83,0,0,0,341.206,132.3Z" fill="#e2d243"/>
      <path d="M354.533,127.153h.969l5.883,8.644h.029v-8.644h.983v10.292h-.969l-5.883-8.644h-.029v8.644h-.983Z" fill="#e2d243"/>
      <path d="M383,130.376a2.594,2.594,0,0,0-2.428-1.344,2.488,2.488,0,0,0-1.915.788,3.56,3.56,0,0,0-.73,2.479,3.865,3.865,0,0,0,.665,2.385,2.322,2.322,0,0,0,1.98.882,2.808,2.808,0,0,0,.737-.108,2.345,2.345,0,0,0,.716-.333,2.061,2.061,0,0,0,.556-.578,1.815,1.815,0,0,0,.275-.846h-2.284v-2h4.452v5.739h-2v-.925a3.372,3.372,0,0,1-1.272.9,4.449,4.449,0,0,1-1.72.319,4.824,4.824,0,0,1-2.045-.406,4.06,4.06,0,0,1-1.461-1.12,4.846,4.846,0,0,1-.881-1.706,7.489,7.489,0,0,1-.3-2.16,7.14,7.14,0,0,1,.319-2.176,4.94,4.94,0,0,1,.946-1.742,4.267,4.267,0,0,1,1.576-1.149,5.48,5.48,0,0,1,2.2-.412,5.771,5.771,0,0,1,2.753.65,5.1,5.1,0,0,1,1.988,1.923Z" fill="#e2d243"/>
      <path d="M400.343,132.3a6.052,6.052,0,0,1-.355,2.067,5.309,5.309,0,0,1-1.019,1.735,4.789,4.789,0,0,1-1.633,1.192,5.684,5.684,0,0,1-4.4,0,4.8,4.8,0,0,1-1.633-1.192,5.309,5.309,0,0,1-1.019-1.735,6.212,6.212,0,0,1,0-4.134,5.309,5.309,0,0,1,1.019-1.735,4.828,4.828,0,0,1,1.633-1.193,5.708,5.708,0,0,1,4.4,0,4.818,4.818,0,0,1,1.633,1.193,5.309,5.309,0,0,1,1.019,1.735A6.052,6.052,0,0,1,400.343,132.3Zm-2.574,0a4.961,4.961,0,0,0-.144-1.192,3.23,3.23,0,0,0-.456-1.048,2.323,2.323,0,0,0-.816-.745,2.459,2.459,0,0,0-1.214-.282,2.878,2.878,0,0,0-1.048.188,2.121,2.121,0,0,0-.831.578,2.814,2.814,0,0,0-.55,1.012,4.839,4.839,0,0,0-.2,1.489,5.473,5.473,0,0,0,.123,1.142,3.181,3.181,0,0,0,.426,1.055,2.358,2.358,0,0,0,.81.774,2.489,2.489,0,0,0,1.272.3,2.333,2.333,0,0,0,2.03-1.041,3.24,3.24,0,0,0,.456-1.048A4.913,4.913,0,0,0,397.769,132.3Z" fill="#e2d243"/>
      <path d="M405.5,127.153h2.574v8.124H412.1v2.168H405.5Z" fill="#e2d243"/>
      <path d="M417.082,127.153h3.99a7.452,7.452,0,0,1,2.139.289,4.28,4.28,0,0,1,1.662.911,4.049,4.049,0,0,1,1.07,1.6,7.526,7.526,0,0,1,0,4.7,4.042,4.042,0,0,1-1.07,1.6,4.28,4.28,0,0,1-1.662.911,7.452,7.452,0,0,1-2.139.289h-3.99Zm2.573,8.124h1.474a2.88,2.88,0,0,0,1.222-.232,2.12,2.12,0,0,0,.81-.636,2.556,2.556,0,0,0,.447-.946,4.978,4.978,0,0,0,0-2.328,2.569,2.569,0,0,0-.447-.947,2.117,2.117,0,0,0-.818-.635,2.941,2.941,0,0,0-1.228-.232h-1.46Z" fill="#e2d243"/>
      <path d="M440.109,134.366a6.162,6.162,0,0,0,1.367.947,3.594,3.594,0,0,0,1.611.339,3.551,3.551,0,0,0,.593-.057,2.557,2.557,0,0,0,.629-.195,1.492,1.492,0,0,0,.5-.369.826.826,0,0,0,.2-.564.7.7,0,0,0-.29-.6,2.119,2.119,0,0,0-.866-.31l-2.14-.348a3.958,3.958,0,0,1-2.2-.961,2.491,2.491,0,0,1-.752-1.872,3.433,3.433,0,0,1,.347-1.6,3.018,3.018,0,0,1,.932-1.091,4.1,4.1,0,0,1,1.345-.622,6.109,6.109,0,0,1,1.582-.2,6.314,6.314,0,0,1,2.48.5,5.771,5.771,0,0,1,2.059,1.475l-1.951,1.4a3.507,3.507,0,0,0-2.761-1.3,1.8,1.8,0,0,0-.477.072,1.918,1.918,0,0,0-.477.2,1.227,1.227,0,0,0-.361.325.761.761,0,0,0,.2,1.085,2.9,2.9,0,0,0,1.084.339l.983.159a13.376,13.376,0,0,1,1.445.325,4.432,4.432,0,0,1,1.193.528,2.5,2.5,0,0,1,.81.838,2.432,2.432,0,0,1,.3,1.244,3.43,3.43,0,0,1-.463,1.879,3.281,3.281,0,0,1-1.171,1.12,4.678,4.678,0,0,1-1.532.535,9.377,9.377,0,0,1-1.546.138,6.321,6.321,0,0,1-2.45-.471,6.255,6.255,0,0,1-2.191-1.626Z" fill="#e2d243"/>
      <path d="M451.8,127.153h7.951v1.994h-2.689v8.3h-2.573v-8.3H451.8Z" fill="#e2d243"/>
      <path d="M466.317,127.153h2.659l3.888,10.292H470.1l-.52-1.619h-3.8l-.521,1.619h-2.747Zm2.645,6.765-1.273-4.25h-.029l-1.271,4.25Z" fill="#e2d243"/>
      <path d="M477.519,127.153h2.6l3.744,6.577h.028v-6.577h2.342v10.292h-2.573l-3.773-6.476h-.029v6.476h-2.342Z" fill="#e2d243"/>
      <path d="M491.772,127.153h3.99a7.452,7.452,0,0,1,2.139.289,4.28,4.28,0,0,1,1.662.911,4.049,4.049,0,0,1,1.07,1.6,7.526,7.526,0,0,1,0,4.7,4.042,4.042,0,0,1-1.07,1.6,4.28,4.28,0,0,1-1.662.911,7.452,7.452,0,0,1-2.139.289h-3.99Zm2.573,8.124h1.474a2.877,2.877,0,0,0,1.222-.232,2.12,2.12,0,0,0,.81-.636,2.556,2.556,0,0,0,.447-.946,4.978,4.978,0,0,0,0-2.328,2.569,2.569,0,0,0-.447-.947,2.117,2.117,0,0,0-.818-.635,2.941,2.941,0,0,0-1.228-.232h-1.46Z" fill="#e2d243"/>
      <path d="M509.018,127.153h2.659l3.889,10.292H512.8l-.52-1.619h-3.8l-.52,1.619h-2.748Zm2.645,6.765-1.272-4.25h-.029l-1.272,4.25Z" fill="#e2d243"/>
      <path d="M520.22,127.153h5.146a4.161,4.161,0,0,1,2.732.824,3.129,3.129,0,0,1,1,2.559,2.757,2.757,0,0,1-.578,1.741,2.982,2.982,0,0,1-1.548,1.034l2.357,4.134H526.45l-2.023-3.7h-1.634v3.7H520.22Zm2.573,4.684h2.356a1.525,1.525,0,0,0,1-.341,1.651,1.651,0,0,0,0-2.095,1.525,1.525,0,0,0-1-.34h-2.356Z" fill="#e2d243"/>
      <path d="M534.2,127.153h3.989a7.454,7.454,0,0,1,2.14.289,4.28,4.28,0,0,1,1.662.911,4.049,4.049,0,0,1,1.07,1.6,7.526,7.526,0,0,1,0,4.7,4.042,4.042,0,0,1-1.07,1.6,4.28,4.28,0,0,1-1.662.911,7.454,7.454,0,0,1-2.14.289H534.2Zm2.573,8.124h1.474a2.88,2.88,0,0,0,1.222-.232,2.12,2.12,0,0,0,.81-.636,2.556,2.556,0,0,0,.447-.946,4.978,4.978,0,0,0,0-2.328,2.569,2.569,0,0,0-.447-.947,2.117,2.117,0,0,0-.818-.635,2.941,2.941,0,0,0-1.228-.232h-1.46Z" fill="#e2d243"/>
    </g>
  </g>
</svg>
