<svg width="1200" height="1200" xmlns="http://www.w3.org/2000/svg" xml:space="preserve" version="1.1">

 <g>
  <title>Layer 1</title>
  <g id="svg_1">
   <path stroke="#fff" id="svg_2" fill="#ffffff" d="m606.02,457.91l-83.95,18.97l0,124.64l83.95,56.68l83.95,-56.68l0,-124.64l-83.95,-18.97zm35.38,52.75l-49.4,0c-2.2,0 -3.6,-2.34 -2.58,-4.28l17.48,-32.98c1.16,-2.18 3.63,-3.32 6.04,-2.77l55.38,12.51c2.18,0.49 2.93,3.21 1.31,4.75l-20.88,19.83c-1.98,1.89 -4.61,2.94 -7.35,2.94zm-17.15,69.7l-49.58,0c-2.33,0 -4.07,-2.14 -3.59,-4.42l10.61,-50.34c0.5,-2.38 2.6,-4.08 5.02,-4.08l49.91,0c2.33,0 4.07,2.14 3.59,4.42l-10.54,50.01c-0.54,2.58 -2.8,4.41 -5.42,4.41zm-51.25,-74.41l-26.65,-18.35c-2.12,-1.46 -1.48,-4.74 1.02,-5.3l43.28,-9.78c1.97,-0.45 3.56,1.63 2.61,3.42l-15.25,28.78c-0.97,1.83 -3.31,2.41 -5.01,1.23zm-1.63,15.91l-11.97,56.81c-0.4,1.88 -1.74,3.43 -3.56,4.08l-19.64,7.02c-1.59,0.57 -3.27,-0.61 -3.27,-2.31l0,-89.91c0,-2.53 2.84,-4.02 4.92,-2.59l31.4,21.62c1.71,1.17 2.54,3.25 2.12,5.28zm-1.91,69.37l50.1,0c2.61,0 4.39,2.65 3.39,5.07l-16.45,39.92c-1.53,3.72 -6.09,5.09 -9.42,2.84l-53.83,-36.34c-1.58,-1.07 -1.28,-3.48 0.52,-4.12l15.85,-5.66c3.16,-1.13 6.48,-1.71 9.84,-1.71zm71.57,2.14l25.9,6.47c1.72,0.43 2.12,2.7 0.65,3.69l-42.75,28.86c-2.07,1.4 -4.7,-0.74 -3.75,-3.05l13.48,-32.71c1.05,-2.54 3.81,-3.93 6.47,-3.26zm-0.38,-16.8l10.75,-51.04c0.91,-4.34 3.12,-8.29 6.34,-11.35l16.86,-16.02c1.7,-1.61 4.5,-0.41 4.5,1.93l0,88.13c0,1.76 -1.65,3.05 -3.35,2.62l-31.02,-7.75c-2.89,-0.73 -4.69,-3.6 -4.08,-6.52z" class="st0"/>
   <g id="svg_3">
    <g id="svg_4">
     <path stroke="#fff" id="svg_5" fill="#ffffff" d="m367.42,710.66c2.22,0.99 3.93,2.4 5.11,4.25c1.18,1.84 1.78,4.03 1.78,6.57c0,2.5 -0.59,4.68 -1.78,6.54c-1.18,1.86 -2.89,3.28 -5.11,4.27c-2.22,0.99 -4.83,1.48 -7.83,1.48l-6.58,0c-0.67,0 -1.22,0.55 -1.22,1.22l0,8.75l-6.42,0l0,-34.56l14.22,0c3,0 5.61,0.49 7.83,1.48zm-1.76,15.9c1.45,-1.18 2.17,-2.88 2.17,-5.09c0,-2.2 -0.72,-3.9 -2.17,-5.09c-1.45,-1.18 -3.57,-1.78 -6.37,-1.78l-6.28,0c-0.67,0 -1.22,0.55 -1.22,1.22l0,11.28c0,0.67 0.55,1.22 1.22,1.22l6.28,0c2.8,0.02 4.93,-0.57 6.37,-1.76z" class="st0"/>
     <path stroke="#fff" id="svg_6" fill="#ffffff" d="m412.32,743.74l-6.25,-8.97c-0.48,-0.69 -1.28,-1.11 -2.12,-1.11l-0.02,0l-6.58,0c-0.67,0 -1.22,0.55 -1.22,1.22l0,8.85l-6.42,0l0,-34.56l14.22,0c2.99,0 5.6,0.49 7.83,1.48c2.22,0.99 3.93,2.4 5.11,4.25c1.18,1.84 1.78,4.03 1.78,6.57c0,2.6 -0.63,4.84 -1.9,6.72c-1.04,1.54 -2.46,2.76 -4.24,3.66c-0.62,0.31 -0.82,1.1 -0.42,1.66l7.16,10.23l-6.93,0zm-2.32,-27.35c-1.45,-1.18 -3.57,-1.78 -6.37,-1.78l-6.28,0c-0.67,0 -1.22,0.55 -1.22,1.22l0,11.33c0,0.67 0.55,1.22 1.22,1.22l6.28,0c2.8,0 4.92,-0.6 6.37,-1.8c1.45,-1.2 2.17,-2.9 2.17,-5.11c0,-2.2 -0.72,-3.9 -2.17,-5.08z" class="st0"/>
     <path stroke="#fff" id="svg_7" fill="#ffffff" d="m435.75,709.18l6.42,0l0,34.56l-6.42,0l0,-34.56z" class="st0"/>
     <path stroke="#fff" id="svg_8" fill="#ffffff" d="m465.05,743.1c-2.49,-0.76 -4.45,-1.76 -5.9,-3.01l2.22,-4.99c1.41,1.12 3.15,2.03 5.21,2.74c2.06,0.71 4.12,1.06 6.2,1.06c2.57,0 4.48,-0.41 5.75,-1.23c1.27,-0.82 1.9,-1.91 1.9,-3.26c0,-0.99 -0.35,-1.8 -1.06,-2.44c-0.71,-0.64 -1.6,-1.14 -2.69,-1.51s-2.57,-0.77 -4.44,-1.23c-2.63,-0.62 -4.76,-1.25 -6.39,-1.88c-1.63,-0.62 -3.03,-1.61 -4.2,-2.94c-1.17,-1.33 -1.75,-3.14 -1.75,-5.41c0,-1.91 0.52,-3.64 1.56,-5.21c1.04,-1.56 2.6,-2.81 4.69,-3.73c2.09,-0.92 4.65,-1.38 7.68,-1.38c2.11,0 4.18,0.26 6.22,0.79c2.04,0.53 3.8,1.28 5.28,2.27l-2.02,4.99c-1.51,-0.89 -3.09,-1.56 -4.74,-2.02c-1.65,-0.46 -3.24,-0.69 -4.79,-0.69c-2.54,0 -4.42,0.43 -5.65,1.28c-1.23,0.86 -1.85,1.99 -1.85,3.41c0,0.99 0.35,1.79 1.06,2.42c0.71,0.63 1.6,1.12 2.69,1.48c1.09,0.36 2.57,0.77 4.44,1.23c2.57,0.59 4.67,1.21 6.32,1.85c1.65,0.64 3.05,1.62 4.22,2.94c1.17,1.32 1.75,3.09 1.75,5.33c0,1.91 -0.52,3.64 -1.56,5.18c-1.04,1.55 -2.61,2.78 -4.72,3.7c-2.11,0.92 -4.67,1.38 -7.7,1.38c-2.67,0.02 -5.25,-0.36 -7.73,-1.12z" class="st0"/>
     <path stroke="#fff" id="svg_9" fill="#ffffff" d="m534.06,743.3l-0.04,-20.89c0,-0.45 -0.59,-0.61 -0.82,-0.23l-10.41,17.39c-0.08,0.13 -0.22,0.21 -0.38,0.21l-2.37,0c-0.15,0 -0.3,-0.08 -0.38,-0.21l-10.41,-17.11c-0.23,-0.38 -0.82,-0.22 -0.82,0.23l0,20.6c0,0.24 -0.2,0.44 -0.44,0.44l-5.24,0c-0.24,0 -0.44,-0.2 -0.44,-0.44l0,-33.68c0,-0.24 0.2,-0.44 0.44,-0.44l4.59,0c0.15,0 0.3,0.08 0.38,0.21l13.07,21.81c0.24,0.4 0.82,0.4 1.06,0l12.83,-21.8c0.08,-0.13 0.22,-0.22 0.38,-0.22l4.59,0c0.24,0 0.44,0.2 0.44,0.44l0.05,33.68c0,0.24 -0.2,0.44 -0.44,0.44l-5.19,0c-0.25,0.01 -0.45,-0.18 -0.45,-0.43z" class="st0"/>
     <path stroke="#fff" id="svg_10" fill="#ffffff" d="m581.15,735.74l-15.37,0c-0.58,0 -1.1,0.35 -1.33,0.88l-3.03,7.12l-6.62,0l15.55,-34.56l6.32,0l15.6,34.56l-6.71,0l-3.08,-7.13c-0.23,-0.52 -0.75,-0.87 -1.33,-0.87zm-1.49,-5.77l-5.79,-13.43c-0.15,-0.36 -0.66,-0.35 -0.81,0l-5.75,13.43c-0.15,0.35 0.11,0.74 0.49,0.74l11.38,0c0.37,0 0.63,-0.39 0.48,-0.74z" class="st0"/>
     <path stroke="#fff" id="svg_11" fill="#ffffff" d="m625.92,743.1c-2.49,-0.76 -4.45,-1.76 -5.9,-3.01l2.22,-4.99c1.41,1.12 3.15,2.03 5.21,2.74c2.06,0.71 4.12,1.06 6.2,1.06c2.57,0 4.48,-0.41 5.75,-1.23c1.27,-0.82 1.9,-1.91 1.9,-3.26c0,-0.99 -0.35,-1.8 -1.06,-2.44c-0.71,-0.64 -1.6,-1.14 -2.69,-1.51s-2.57,-0.77 -4.44,-1.23c-2.63,-0.62 -4.76,-1.25 -6.39,-1.88c-1.63,-0.62 -3.03,-1.61 -4.2,-2.94c-1.17,-1.33 -1.75,-3.14 -1.75,-5.41c0,-1.91 0.52,-3.64 1.56,-5.21c1.04,-1.56 2.6,-2.81 4.69,-3.73c2.09,-0.92 4.65,-1.38 7.68,-1.38c2.11,0 4.18,0.26 6.22,0.79c2.04,0.53 3.8,1.28 5.28,2.27l-2.02,4.99c-1.51,-0.89 -3.09,-1.56 -4.74,-2.02c-1.65,-0.46 -3.24,-0.69 -4.79,-0.69c-2.54,0 -4.42,0.43 -5.65,1.28c-1.23,0.86 -1.85,1.99 -1.85,3.41c0,0.99 0.35,1.79 1.06,2.42c0.71,0.63 1.6,1.12 2.69,1.48c1.09,0.36 2.57,0.77 4.44,1.23c2.57,0.59 4.67,1.21 6.32,1.85c1.65,0.64 3.05,1.62 4.22,2.94c1.17,1.32 1.75,3.09 1.75,5.33c0,1.91 -0.52,3.64 -1.56,5.18c-1.04,1.55 -2.61,2.78 -4.72,3.7c-2.11,0.92 -4.67,1.38 -7.7,1.38c-2.66,0.02 -5.24,-0.36 -7.73,-1.12z" class="st0"/>
     <path stroke="#fff" id="svg_12" fill="#ffffff" d="m695.38,709.18l0,34.56l-6.42,0l0,-13.59c0,-0.67 -0.55,-1.22 -1.22,-1.22l-15.43,0c-0.67,0 -1.22,0.55 -1.22,1.22l0,13.59l-6.42,0l0,-34.56l6.42,0l0,13.05c0,0.67 0.55,1.22 1.22,1.22l15.43,0c0.67,0 1.22,-0.55 1.22,-1.22l0,-13.05l6.42,0z" class="st0"/>
     <path stroke="#fff" id="svg_13" fill="#ffffff" d="m714.43,709.18l6.42,0l0,34.56l-6.42,0l0,-34.56z" class="st0"/>
     <path stroke="#fff" id="svg_14" fill="#ffffff" d="m766.01,738.36l0,5.38l-25.92,0l0,-34.56l25.23,0l0,5.38l-17.59,0c-0.67,0 -1.22,0.55 -1.22,1.22l0,6.54c0,0.67 0.55,1.22 1.22,1.22l15.47,0l0,5.28l-15.47,0c-0.67,0 -1.22,0.55 -1.22,1.22l0,7.09c0,0.67 0.55,1.22 1.22,1.22l18.28,0l0,0.01z" class="st0"/>
     <path stroke="#fff" id="svg_15" fill="#ffffff" d="m782.65,709.18l6.42,0l0,27.76c0,0.76 0.61,1.37 1.37,1.37l16.7,0l0,5.43l-24.49,0l0,-34.56z" class="st0"/>
     <path stroke="#fff" id="svg_16" fill="#ffffff" d="m821.59,709.18l14.18,0c3.69,0 6.96,0.72 9.83,2.15c2.86,1.43 5.09,3.46 6.67,6.07c1.58,2.62 2.37,5.64 2.37,9.06c0,3.42 -0.79,6.44 -2.37,9.06c-1.58,2.62 -3.8,4.64 -6.67,6.07c-2.86,1.43 -6.14,2.15 -9.83,2.15l-14.18,0l0,-34.56zm13.88,29.13c2.53,0 4.76,-0.49 6.69,-1.46s3.41,-2.35 4.44,-4.15c1.04,-1.79 1.56,-3.88 1.56,-6.25c0,-2.37 -0.52,-4.45 -1.56,-6.25c-1.04,-1.79 -2.52,-3.18 -4.44,-4.15c-1.93,-0.97 -4.16,-1.46 -6.69,-1.46l-6.09,0c-0.76,0 -1.37,0.61 -1.37,1.37l0,20.95c0,0.76 0.61,1.37 1.37,1.37l6.09,0l0,0.03z" class="st0"/>
    </g>
   </g>
  </g>
 </g>
</svg>