<?xml version="1.0" encoding="utf-8"?>
<!-- Generator: Adobe Illustrator 23.0.1, SVG Export Plug-In . SVG Version: 6.00 Build 0)  -->
<svg version="1.1" id="Layer_1" xmlns="http://www.w3.org/2000/svg" xmlns:xlink="http://www.w3.org/1999/xlink" x="0px" y="0px"
	 viewBox="0 0 1200 1200" style="enable-background:new 0 0 1200 1200;" xml:space="preserve">
<style type="text/css">
	.st0{fill:#072640;}
</style>
<g>
	<path class="st0" d="M606.02,457.91l-83.95,18.97v124.64l83.95,56.68l83.95-56.68V476.88L606.02,457.91z M641.4,510.66h-49.4
		c-2.2,0-3.6-2.34-2.58-4.28l17.48-32.98c1.16-2.18,3.63-3.32,6.04-2.77l55.38,12.51c2.18,0.49,2.93,3.21,1.31,4.75l-20.88,19.83
		C646.77,509.61,644.14,510.66,641.4,510.66z M624.25,580.36h-49.58c-2.33,0-4.07-2.14-3.59-4.42l10.61-50.34
		c0.5-2.38,2.6-4.08,5.02-4.08h49.91c2.33,0,4.07,2.14,3.59,4.42l-10.54,50.01C629.13,578.53,626.87,580.36,624.25,580.36z
		 M573,505.95l-26.65-18.35c-2.12-1.46-1.48-4.74,1.02-5.3l43.28-9.78c1.97-0.45,3.56,1.63,2.61,3.42l-15.25,28.78
		C577.04,506.55,574.7,507.13,573,505.95z M571.37,521.86l-11.97,56.81c-0.4,1.88-1.74,3.43-3.56,4.08l-19.64,7.02
		c-1.59,0.57-3.27-0.61-3.27-2.31v-89.91c0-2.53,2.84-4.02,4.92-2.59l31.4,21.62C570.96,517.75,571.79,519.83,571.37,521.86z
		 M569.46,591.23h50.1c2.61,0,4.39,2.65,3.39,5.07l-16.45,39.92c-1.53,3.72-6.09,5.09-9.42,2.84l-53.83-36.34
		c-1.58-1.07-1.28-3.48,0.52-4.12l15.85-5.66C562.78,591.81,566.1,591.23,569.46,591.23z M641.03,593.37l25.9,6.47
		c1.72,0.43,2.12,2.7,0.65,3.69l-42.75,28.86c-2.07,1.4-4.7-0.74-3.75-3.05l13.48-32.71C635.61,594.09,638.37,592.7,641.03,593.37z
		 M640.65,576.57l10.75-51.04c0.91-4.34,3.12-8.29,6.34-11.35l16.86-16.02c1.7-1.61,4.5-0.41,4.5,1.93v88.13
		c0,1.76-1.65,3.05-3.35,2.62l-31.02-7.75C641.84,582.36,640.04,579.49,640.65,576.57z"/>
	<g>
		<g>
			<path class="st0" d="M367.42,710.66c2.22,0.99,3.93,2.4,5.11,4.25c1.18,1.84,1.78,4.03,1.78,6.57c0,2.5-0.59,4.68-1.78,6.54
				c-1.18,1.86-2.89,3.28-5.11,4.27c-2.22,0.99-4.83,1.48-7.83,1.48h-6.58c-0.67,0-1.22,0.55-1.22,1.22v8.75h-6.42v-34.56h14.22
				C362.59,709.18,365.2,709.67,367.42,710.66z M365.66,726.56c1.45-1.18,2.17-2.88,2.17-5.09c0-2.2-0.72-3.9-2.17-5.09
				c-1.45-1.18-3.57-1.78-6.37-1.78h-6.28c-0.67,0-1.22,0.55-1.22,1.22v11.28c0,0.67,0.55,1.22,1.22,1.22h6.28
				C362.09,728.34,364.22,727.75,365.66,726.56z"/>
			<path class="st0" d="M412.32,743.74l-6.25-8.97c-0.48-0.69-1.28-1.11-2.12-1.11h-0.02h-6.58c-0.67,0-1.22,0.55-1.22,1.22v8.85
				h-6.42v-34.56h14.22c2.99,0,5.6,0.49,7.83,1.48c2.22,0.99,3.93,2.4,5.11,4.25c1.18,1.84,1.78,4.03,1.78,6.57
				c0,2.6-0.63,4.84-1.9,6.72c-1.04,1.54-2.46,2.76-4.24,3.66c-0.62,0.31-0.82,1.1-0.42,1.66l7.16,10.23H412.32z M410,716.39
				c-1.45-1.18-3.57-1.78-6.37-1.78h-6.28c-0.67,0-1.22,0.55-1.22,1.22v11.33c0,0.67,0.55,1.22,1.22,1.22h6.28
				c2.8,0,4.92-0.6,6.37-1.8c1.45-1.2,2.17-2.9,2.17-5.11C412.17,719.27,411.45,717.57,410,716.39z"/>
			<path class="st0" d="M435.75,709.18h6.42v34.56h-6.42V709.18z"/>
			<path class="st0" d="M465.05,743.1c-2.49-0.76-4.45-1.76-5.9-3.01l2.22-4.99c1.41,1.12,3.15,2.03,5.21,2.74
				c2.06,0.71,4.12,1.06,6.2,1.06c2.57,0,4.48-0.41,5.75-1.23c1.27-0.82,1.9-1.91,1.9-3.26c0-0.99-0.35-1.8-1.06-2.44
				c-0.71-0.64-1.6-1.14-2.69-1.51s-2.57-0.77-4.44-1.23c-2.63-0.62-4.76-1.25-6.39-1.88c-1.63-0.62-3.03-1.61-4.2-2.94
				c-1.17-1.33-1.75-3.14-1.75-5.41c0-1.91,0.52-3.64,1.56-5.21c1.04-1.56,2.6-2.81,4.69-3.73c2.09-0.92,4.65-1.38,7.68-1.38
				c2.11,0,4.18,0.26,6.22,0.79c2.04,0.53,3.8,1.28,5.28,2.27l-2.02,4.99c-1.51-0.89-3.09-1.56-4.74-2.02
				c-1.65-0.46-3.24-0.69-4.79-0.69c-2.54,0-4.42,0.43-5.65,1.28c-1.23,0.86-1.85,1.99-1.85,3.41c0,0.99,0.35,1.79,1.06,2.42
				c0.71,0.63,1.6,1.12,2.69,1.48c1.09,0.36,2.57,0.77,4.44,1.23c2.57,0.59,4.67,1.21,6.32,1.85c1.65,0.64,3.05,1.62,4.22,2.94
				c1.17,1.32,1.75,3.09,1.75,5.33c0,1.91-0.52,3.64-1.56,5.18c-1.04,1.55-2.61,2.78-4.72,3.7c-2.11,0.92-4.67,1.38-7.7,1.38
				C470.11,744.24,467.53,743.86,465.05,743.1z"/>
			<path class="st0" d="M534.06,743.3l-0.04-20.89c0-0.45-0.59-0.61-0.82-0.23l-10.41,17.39c-0.08,0.13-0.22,0.21-0.38,0.21h-2.37
				c-0.15,0-0.3-0.08-0.38-0.21l-10.41-17.11c-0.23-0.38-0.82-0.22-0.82,0.23v20.6c0,0.24-0.2,0.44-0.44,0.44h-5.24
				c-0.24,0-0.44-0.2-0.44-0.44v-33.68c0-0.24,0.2-0.44,0.44-0.44h4.59c0.15,0,0.3,0.08,0.38,0.21l13.07,21.81
				c0.24,0.4,0.82,0.4,1.06,0l12.83-21.8c0.08-0.13,0.22-0.22,0.38-0.22h4.59c0.24,0,0.44,0.2,0.44,0.44l0.05,33.68
				c0,0.24-0.2,0.44-0.44,0.44h-5.19C534.26,743.74,534.06,743.55,534.06,743.3z"/>
			<path class="st0" d="M581.15,735.74h-15.37c-0.58,0-1.1,0.35-1.33,0.88l-3.03,7.12h-6.62l15.55-34.56h6.32l15.6,34.56h-6.71
				l-3.08-7.13C582.25,736.09,581.73,735.74,581.15,735.74z M579.66,729.97l-5.79-13.43c-0.15-0.36-0.66-0.35-0.81,0l-5.75,13.43
				c-0.15,0.35,0.11,0.74,0.49,0.74h11.38C579.55,730.71,579.81,730.32,579.66,729.97z"/>
			<path class="st0" d="M625.92,743.1c-2.49-0.76-4.45-1.76-5.9-3.01l2.22-4.99c1.41,1.12,3.15,2.03,5.21,2.74
				c2.06,0.71,4.12,1.06,6.2,1.06c2.57,0,4.48-0.41,5.75-1.23c1.27-0.82,1.9-1.91,1.9-3.26c0-0.99-0.35-1.8-1.06-2.44
				c-0.71-0.64-1.6-1.14-2.69-1.51s-2.57-0.77-4.44-1.23c-2.63-0.62-4.76-1.25-6.39-1.88c-1.63-0.62-3.03-1.61-4.2-2.94
				c-1.17-1.33-1.75-3.14-1.75-5.41c0-1.91,0.52-3.64,1.56-5.21c1.04-1.56,2.6-2.81,4.69-3.73c2.09-0.92,4.65-1.38,7.68-1.38
				c2.11,0,4.18,0.26,6.22,0.79c2.04,0.53,3.8,1.28,5.28,2.27l-2.02,4.99c-1.51-0.89-3.09-1.56-4.74-2.02
				c-1.65-0.46-3.24-0.69-4.79-0.69c-2.54,0-4.42,0.43-5.65,1.28c-1.23,0.86-1.85,1.99-1.85,3.41c0,0.99,0.35,1.79,1.06,2.42
				c0.71,0.63,1.6,1.12,2.69,1.48c1.09,0.36,2.57,0.77,4.44,1.23c2.57,0.59,4.67,1.21,6.32,1.85c1.65,0.64,3.05,1.62,4.22,2.94
				c1.17,1.32,1.75,3.09,1.75,5.33c0,1.91-0.52,3.64-1.56,5.18c-1.04,1.55-2.61,2.78-4.72,3.7c-2.11,0.92-4.67,1.38-7.7,1.38
				C630.99,744.24,628.41,743.86,625.92,743.1z"/>
			<path class="st0" d="M695.38,709.18v34.56h-6.42v-13.59c0-0.67-0.55-1.22-1.22-1.22h-15.43c-0.67,0-1.22,0.55-1.22,1.22v13.59
				h-6.42v-34.56h6.42v13.05c0,0.67,0.55,1.22,1.22,1.22h15.43c0.67,0,1.22-0.55,1.22-1.22v-13.05H695.38z"/>
			<path class="st0" d="M714.43,709.18h6.42v34.56h-6.42V709.18z"/>
			<path class="st0" d="M766.01,738.36v5.38h-25.92v-34.56h25.23v5.38h-17.59c-0.67,0-1.22,0.55-1.22,1.22v6.54
				c0,0.67,0.55,1.22,1.22,1.22h15.47v5.28h-15.47c-0.67,0-1.22,0.55-1.22,1.22v7.09c0,0.67,0.55,1.22,1.22,1.22H766.01z"/>
			<path class="st0" d="M782.65,709.18h6.42v27.76c0,0.76,0.61,1.37,1.37,1.37h16.7v5.43h-24.49V709.18z"/>
			<path class="st0" d="M821.59,709.18h14.18c3.69,0,6.96,0.72,9.83,2.15c2.86,1.43,5.09,3.46,6.67,6.07
				c1.58,2.62,2.37,5.64,2.37,9.06c0,3.42-0.79,6.44-2.37,9.06c-1.58,2.62-3.8,4.64-6.67,6.07c-2.86,1.43-6.14,2.15-9.83,2.15
				h-14.18V709.18z M835.47,738.31c2.53,0,4.76-0.49,6.69-1.46s3.41-2.35,4.44-4.15c1.04-1.79,1.56-3.88,1.56-6.25
				c0-2.37-0.52-4.45-1.56-6.25c-1.04-1.79-2.52-3.18-4.44-4.15c-1.93-0.97-4.16-1.46-6.69-1.46h-6.09c-0.76,0-1.37,0.61-1.37,1.37
				v20.95c0,0.76,0.61,1.37,1.37,1.37H835.47z"/>
		</g>
	</g>
</g>
</svg>
