<svg style="object-fit:cover" id="my-svg" version="1" baseProfile="full" width="100%" height="100%" viewBox="0 0 1920 937" xmlns="http://www.w3.org/2000/svg"><rect width="1920" height="937" fill="#7950f2"/><defs><linearGradient id="linear-gradient" x1="0" x2="0" y1="1" y2="0"><stop offset="0%" stop-color="#7950f280"/><stop offset="100%" stop-color="#1c39bb80"/></linearGradient></defs><path transform="scale(1, 1)" style="transform-origin:center" d="M 0,937 V 0,281 C 205.32142857142856,341 410.6428571428571,401 555,379 C 699.3571428571429,357 782.75,253 942,242 C 1101.25,231 1336.357142857143,313 1512,335 C 1687.642857142857,357 1803.8214285714284,319 1920,281 C 1920,281 1920,937 1920,937 Z" stroke="none" stroke-width="0" fill="url(#linear-gradient)" class="transition-all duration-300 ease-in-out delay-150"/><defs><linearGradient id="linear-gradient" x1="0" x2="0" y1="1" y2="0"><stop offset="0%" stop-color="#7950f290"/><stop offset="100%" stop-color="#1c39bb90"/></linearGradient></defs><path transform="scale(1, 1)" d="M 0,937 V 0,421 C 161.46428571428572,416.3571428571429 322.92857142857144,411.7142857142857 471,392 C 619.0714285714286,372.2857142857143 753.75,337.50000000000006 904,364 C 1054.25,390.49999999999994 1220.0714285714287,478.2857142857142 1392,498 C 1563.9285714285713,517.7142857142858 1741.9642857142858,469.3571428571429 1920,421 C 1920,421 1920,937 1920,937 Z" stroke="none" stroke-width="0" fill="url(#linear-gradient)" class="transition-all duration-300 ease-in-out delay-150" style="transform-origin: center center;"/><defs><linearGradient id="linear-gradient" x1="0" x2="0" y1="1" y2="0"><stop offset="0%" stop-color="#7950f2ff"/><stop offset="100%" stop-color="#1c39bbff"/></linearGradient></defs><path transform="scale(1, 1)" d="M 0,937 V 0,632 C 163.71428571428572,678.0714285714286 327.42857142857144,724.1428571428571 509,693 C 690.5714285714286,661.8571428571429 890,553.5 1046,550 C 1202,546.5 1314.5714285714284,647.8571428571429 1453,679 C 1591.4285714285716,710.1428571428571 1755.7142857142858,671.0714285714286 1920,632 C 1920,632 1920,937 1920,937 Z" stroke="none" stroke-width="0" fill="url(#linear-gradient)" class="transition-all duration-300 ease-in-out delay-150" style="transform-origin: center center;"/></svg>