<svg style="object-fit:cover" id="my-svg" version="1" baseProfile="full" width="100%" height="100%" viewBox="0 0 1920 937" xmlns="http://www.w3.org/2000/svg"><rect width="1920" height="937" fill="#201d47"/><defs><linearGradient id="linear-gradient" x1="0" x2="1" y1="0" y2="1"><stop offset="0%" stop-color="#7950f280"/><stop offset="100%" stop-color="#be4bdb80"/></linearGradient></defs><path transform="scale(1, 1)" d="M 0,937 V 0,374 C 97.96153846153848,407.54615384615386 195.92307692307696,441.09230769230766 317,457 C 438.07692307692304,472.90769230769234 582.2692307692307,471.1769230769231 699,436 C 815.7307692307693,400.8230769230769 905,332.2 982,358 C 1059,383.8 1123.7307692307693,504.0230769230769 1230,512 C 1336.2692307692307,519.9769230769231 1484.076923076923,415.7076923076923 1606,374 C 1727.923076923077,332.2923076923077 1823.9615384615386,353.1461538461539 1920,374 C 1920,374 1920,937 1920,937 Z" stroke="none" stroke-width="0" fill="url(#linear-gradient)" class="transition-all duration-300 ease-in-out delay-150" style="transform-origin: center center;"/><defs><linearGradient id="linear-gradient" x1="0" x2="1" y1="0" y2="1"><stop offset="0%" stop-color="#7950f290"/><stop offset="100%" stop-color="#be4bdb90"/></linearGradient></defs><path transform="scale(1, 1)" d="M 0,937 V 0,562 C 127.7794871794872,547.1205128205129 255.5589743589744,532.2410256410257 370,548 C 484.4410256410256,563.7589743589743 585.5435897435897,610.1564102564104 694,627 C 802.4564102564103,643.8435897435896 918.2666666666667,631.1333333333333 1009,608 C 1099.7333333333333,584.8666666666667 1165.3897435897434,551.3102564102564 1276,577 C 1386.6102564102566,602.6897435897436 1542.1743589743592,687.625641025641 1657,695 C 1771.8256410256408,702.374358974359 1845.9128205128204,632.1871794871795 1920,562 C 1920,562 1920,937 1920,937 Z" stroke="none" stroke-width="0" fill="url(#linear-gradient)" class="transition-all duration-300 ease-in-out delay-150" style="transform-origin: center center;"/><defs><linearGradient id="linear-gradient" x1="0" x2="1" y1="0" y2="1"><stop offset="0%" stop-color="#7950f2ff"/><stop offset="100%" stop-color="#be4bdbff"/></linearGradient></defs><path transform="scale(1, 1)" d="M 0,937 V 0,843 C 75.07948717948719,792.3615384615384 150.15897435897438,741.7230769230767 270,784 C 389.8410256410256,826.2769230769233 554.4435897435898,961.469230769231 689,978 C 823.5564102564102,994.530769230769 928.0666666666666,892.3999999999999 1002,837 C 1075.9333333333334,781.6000000000001 1119.2897435897437,772.9307692307693 1222,805 C 1324.7102564102563,837.0692307692307 1486.774358974359,909.8769230769232 1613,923 C 1739.225641025641,936.1230769230768 1829.6128205128205,889.5615384615385 1920,843 C 1920,843 1920,937 1920,937 Z" stroke="none" stroke-width="0" fill="url(#linear-gradient)" class="transition-all duration-300 ease-in-out delay-150" style="transform-origin: center center;"/></svg>