<svg style="object-fit:cover" id="my-svg" version="1" baseProfile="full" width="100%" height="100%" viewBox="0 0 1920 937" xmlns="http://www.w3.org/2000/svg"><rect width="1920" height="937" fill="#201d47"/><defs><linearGradient id="linear-gradient" x1="0.5" x2="1" y1="1" y2="0"><stop offset="0%" stop-color="#7950f280"/><stop offset="100%" stop-color="#17153a80"/></linearGradient></defs><path transform="scale(1, 1)" d="M 0,937 V 0,374 C 163.57142857142856,435.6428571428571 327.1428571428571,497.2857142857143 485,484 C 642.8571428571429,470.7142857142857 794.9999999999998,382.49999999999994 946,338 C 1097.0000000000002,293.50000000000006 1246.857142857143,292.7142857142858 1409,306 C 1571.142857142857,319.2857142857142 1745.5714285714284,346.6428571428571 1920,374 C 1920,374 1920,937 1920,937 Z" stroke="none" stroke-width="0" fill="url(#linear-gradient)" class="transition-all duration-300 ease-in-out delay-150" style="transform-origin: center center;"/><defs><linearGradient id="linear-gradient" x1="0.5" x2="1" y1="1" y2="0"><stop offset="0%" stop-color="#7950f290"/><stop offset="100%" stop-color="#17153a90"/></linearGradient></defs><path transform="scale(1, 1)" d="M 0,937 V 0,562 C 117.82142857142856,478.07142857142856 235.6428571428571,394.14285714285717 425,440 C 614.3571428571429,485.85714285714283 875.25,661.5000000000001 1048,692 C 1220.75,722.4999999999999 1305.3571428571427,607.8571428571429 1436,562 C 1566.6428571428573,516.1428571428571 1743.3214285714287,539.0714285714286 1920,562 C 1920,562 1920,937 1920,937 Z" stroke="none" stroke-width="0" fill="url(#linear-gradient)" class="transition-all duration-300 ease-in-out delay-150" style="transform-origin: center center;"/><defs><linearGradient id="linear-gradient" x1="0.5" x2="1" y1="1" y2="0"><stop offset="0%" stop-color="#7950f2ff"/><stop offset="100%" stop-color="#17153aff"/></linearGradient></defs><path transform="scale(1, 1)" d="M 0,937 V 0,843 C 131.67857142857144,877.1785714285714 263.3571428571429,911.3571428571429 432,933 C 600.6428571428571,954.6428571428571 806.2500000000002,963.7499999999999 989,923 C 1171.7499999999998,882.2500000000001 1331.642857142857,791.6428571428572 1483,770 C 1634.357142857143,748.3571428571428 1777.1785714285716,795.6785714285713 1920,843 C 1920,843 1920,937 1920,937 Z" stroke="none" stroke-width="0" fill="url(#linear-gradient)" class="transition-all duration-300 ease-in-out delay-150" style="transform-origin: center center;"/></svg>