<svg style="object-fit:cover" id="my-svg" version="1" baseProfile="full" width="100%" height="100%" viewBox="0 0 1920 937" xmlns="http://www.w3.org/2000/svg"><rect width="1920" height="937" fill="#201d47"/><defs><linearGradient id="linear-gradient" x1="0.5" x2="1" y1="1" y2="0"><stop offset="0%" stop-color="#7950f280"/><stop offset="100%" stop-color="#17153a80"/></linearGradient></defs><path transform="scale(1, 1)" d="M 0,937 V 0,374 C 185.10714285714283,377.1428571428571 370.21428571428567,380.2857142857143 518,352 C 665.7857142857143,323.7142857142857 776.25,264 944,246 C 1111.75,228 1336.7857142857142,251.71428571428572 1509,280 C 1681.2142857142858,308.2857142857143 1800.607142857143,341.1428571428571 1920,374 C 1920,374 1920,937 1920,937 Z" stroke="none" stroke-width="0" fill="url(#linear-gradient)" class="transition-all duration-300 ease-in-out delay-150" style="transform-origin: center center;"/><defs><linearGradient id="linear-gradient" x1="0.5" x2="1" y1="1" y2="0"><stop offset="0%" stop-color="#7950f290"/><stop offset="100%" stop-color="#17153a90"/></linearGradient></defs><path transform="scale(1, 1)" d="M 0,937 V 0,562 C 180.71428571428572,476.75 361.42857142857144,391.5 534,439 C 706.5714285714286,486.5 871.0000000000002,666.75 1010,672 C 1148.9999999999998,677.25 1262.5714285714287,507.50000000000006 1410,460 C 1557.4285714285713,412.49999999999994 1738.7142857142858,487.25 1920,562 C 1920,562 1920,937 1920,937 Z" stroke="none" stroke-width="0" fill="url(#linear-gradient)" class="transition-all duration-300 ease-in-out delay-150" style="transform-origin: center center;"/><defs><linearGradient id="linear-gradient" x1="0.5" x2="1" y1="1" y2="0"><stop offset="0%" stop-color="#7950f2ff"/><stop offset="100%" stop-color="#17153aff"/></linearGradient></defs><path transform="scale(1, 1)" d="M 0,937 V 0,843 C 152.14285714285717,791.4285714285714 304.28571428571433,739.8571428571429 464,733 C 623.7142857142857,726.1428571428571 790.9999999999998,764.0000000000001 965,807 C 1139.0000000000002,849.9999999999999 1319.7142857142858,898.1428571428571 1480,905 C 1640.2857142857142,911.8571428571429 1780.142857142857,877.4285714285714 1920,843 C 1920,843 1920,937 1920,937 Z" stroke="none" stroke-width="0" fill="url(#linear-gradient)" class="transition-all duration-300 ease-in-out delay-150" style="transform-origin: center center;"/></svg>