<svg style="object-fit:cover" id="my-svg" version="1" baseProfile="full" width="100%" height="100%" viewBox="0 0 1920 937" xmlns="http://www.w3.org/2000/svg"><rect width="1920" height="937" fill="#000"/><defs><linearGradient id="linear-gradient" x1="0.5" x2="1" y1="1" y2="0"><stop offset="0%" stop-color="#c81d1180"/><stop offset="100%" stop-color="#1c39bb80"/></linearGradient></defs><path transform="scale(1, 1)" d="M 0,937 V 0,374 C 205.35714285714283,349.5357142857143 410.71428571428567,325.07142857142856 566,321 C 721.2857142857143,316.92857142857144 826.5,333.25 959,374 C 1091.5,414.75 1251.2857142857142,479.92857142857144 1416,484 C 1580.7142857142858,488.07142857142856 1750.357142857143,431.0357142857143 1920,374 C 1920,374 1920,937 1920,937 Z" stroke="none" stroke-width="0" fill="url(#linear-gradient)" class="transition-all duration-300 ease-in-out delay-150" style="transform-origin: center center;"/><defs><linearGradient id="linear-gradient" x1="0.5" x2="1" y1="1" y2="0"><stop offset="0%" stop-color="#c81d1190"/><stop offset="100%" stop-color="#1c39bb90"/></linearGradient></defs><path transform="scale(1, 1)" d="M 0,937 V 0,562 C 115.42857142857144,523.1071428571429 230.8571428571429,484.21428571428567 417,499 C 603.1428571428571,513.7857142857143 860,582.25 1022,629 C 1184,675.75 1251.1428571428573,700.7857142857143 1385,686 C 1518.8571428571427,671.2142857142857 1719.4285714285713,616.6071428571429 1920,562 C 1920,562 1920,937 1920,937 Z" stroke="none" stroke-width="0" fill="url(#linear-gradient)" class="transition-all duration-300 ease-in-out delay-150" style="transform-origin: center center;"/><defs><linearGradient id="linear-gradient" x1="0.5" x2="1" y1="1" y2="0"><stop offset="0%" stop-color="#c81d11ff"/><stop offset="100%" stop-color="#1c39bbff"/></linearGradient></defs><path transform="scale(1, 1)" d="M 0,937 V 0,843 C 110.03571428571428,889.0357142857142 220.07142857142856,935.0714285714286 403,899 C 585.9285714285714,862.9285714285714 841.75,744.7499999999999 1011,749 C 1180.25,753.2500000000001 1262.9285714285713,879.9285714285713 1400,916 C 1537.0714285714287,952.0714285714287 1728.5357142857142,897.5357142857143 1920,843 C 1920,843 1920,937 1920,937 Z" stroke="none" stroke-width="0" fill="url(#linear-gradient)" class="transition-all duration-300 ease-in-out delay-150" style="transform-origin: center center;"/></svg>